<svg xmlns="http://www.w3.org/2000/svg" viewBox="0 0 1280 360" width="1280" height="360" role="img" aria-label="deckard">
  <title>deckard</title>
  <defs>
    <linearGradient id="sky" x1="0" y1="0" x2="0" y2="1">
      <stop offset="0" stop-color="#05060b"/><stop offset=".55" stop-color="#0b1020"/><stop offset="1" stop-color="#2a1630"/>
    </linearGradient>
    <radialGradient id="haze" cx=".5" cy=".62" r=".6">
      <stop offset="0" stop-color="#ff7a3d" stop-opacity=".32"/><stop offset="1" stop-color="#ff7a3d" stop-opacity="0"/>
    </radialGradient>
    <filter id="glow" x="-20%" y="-60%" width="140%" height="220%">
      <feGaussianBlur stdDeviation="9" result="b1"/><feGaussianBlur in="SourceGraphic" stdDeviation="3" result="b2"/>
      <feMerge><feMergeNode in="b1"/><feMergeNode in="b1"/><feMergeNode in="b2"/></feMerge>
    </filter>
    <filter id="soft"><feGaussianBlur stdDeviation="1.2"/></filter>
  </defs>
  <rect width="1280" height="360" fill="url(#sky)"/>
  <rect width="1280" height="360" fill="url(#haze)"/>
  <g><rect x="0" y="291" width="46" height="69" fill="#0a0d18"/><rect x="31" y="327" width="3" height="2" fill="#ffb347" fill-opacity="0.9"/><rect x="15" y="306" width="3" height="2" fill="#ffb347" fill-opacity="0.9"/><rect x="33" y="335" width="3" height="2" fill="#ffb347" fill-opacity="0.9"/><rect x="52" y="340" width="29" height="20" fill="#0a0d18"/><rect x="64" y="346" width="3" height="2" fill="#ffb347" fill-opacity="0.5"/><rect x="72" y="344" width="3" height="2" fill="#ffb347" fill-opacity="0.9"/><rect x="67" y="351" width="3" height="2" fill="#ffb347" fill-opacity="0.9"/><rect x="86" y="305" width="57" height="55" fill="#0a0d18"/><rect x="128" y="309" width="3" height="2" fill="#ffb347" fill-opacity="0.9"/><rect x="143" y="344" width="21" height="16" fill="#0a0d18"/><rect x="149" y="352" width="3" height="2" fill="#ffb347" fill-opacity="0.5"/><rect x="170" y="326" width="47" height="34" fill="#0a0d18"/><rect x="210" y="336" width="3" height="2" fill="#ffb347" fill-opacity="0.9"/><rect x="187" y="350" width="3" height="2" fill="#ffb347" fill-opacity="0.7"/><rect x="204" y="330" width="3" height="2" fill="#ffb347" fill-opacity="0.9"/><rect x="217" y="305" width="47" height="55" fill="#0a0d18"/><rect x="246" y="344" width="3" height="2" fill="#ffb347" fill-opacity="0.5"/><rect x="236" y="329" width="3" height="2" fill="#ffb347" fill-opacity="0.5"/><rect x="268" y="345" width="36" height="15" fill="#0a0d18"/><rect x="308" y="321" width="24" height="39" fill="#0a0d18"/><rect x="338" y="322" width="36" height="38" fill="#0a0d18"/><rect x="374" y="333" width="18" height="27" fill="#0a0d18"/><rect x="377" y="352" width="3" height="2" fill="#ffb347" fill-opacity="0.7"/><rect x="397" y="320" width="43" height="40" fill="#0a0d18"/><rect x="444" y="334" width="58" height="26" fill="#0a0d18"/><rect x="468" y="339" width="3" height="2" fill="#ffb347" fill-opacity="0.7"/><rect x="468" y="338" width="3" height="2" fill="#ffb347" fill-opacity="0.7"/><rect x="508" y="338" width="25" height="22" fill="#0a0d18"/><rect x="514" y="342" width="3" height="2" fill="#ffb347" fill-opacity="0.5"/><rect x="536" y="335" width="49" height="25" fill="#0a0d18"/><rect x="567" y="347" width="3" height="2" fill="#ffb347" fill-opacity="0.5"/><rect x="590" y="320" width="26" height="40" fill="#0a0d18"/><rect x="596" y="336" width="3" height="2" fill="#ffb347" fill-opacity="0.7"/><rect x="599" y="324" width="3" height="2" fill="#ffb347" fill-opacity="0.7"/><rect x="602" y="352" width="3" height="2" fill="#ffb347" fill-opacity="0.5"/><rect x="617" y="321" width="29" height="39" fill="#0a0d18"/><rect x="646" y="333" width="27" height="27" fill="#0a0d18"/><rect x="657" y="337" width="3" height="2" fill="#ffb347" fill-opacity="0.9"/><rect x="659" y="346" width="3" height="2" fill="#ffb347" fill-opacity="0.7"/><rect x="651" y="339" width="3" height="2" fill="#ffb347" fill-opacity="0.5"/><rect x="674" y="306" width="55" height="54" fill="#0a0d18"/><rect x="677" y="348" width="3" height="2" fill="#ffb347" fill-opacity="0.7"/><rect x="731" y="317" width="57" height="43" fill="#0a0d18"/><rect x="771" y="351" width="3" height="2" fill="#ffb347" fill-opacity="0.9"/><rect x="789" y="335" width="42" height="25" fill="#0a0d18"/><rect x="811" y="342" width="3" height="2" fill="#ffb347" fill-opacity="0.9"/><rect x="832" y="336" width="30" height="24" fill="#0a0d18"/><rect x="856" y="346" width="3" height="2" fill="#ffb347" fill-opacity="0.7"/><rect x="866" y="320" width="23" height="40" fill="#0a0d18"/><rect x="889" y="344" width="24" height="16" fill="#0a0d18"/><rect x="899" y="351" width="3" height="2" fill="#ffb347" fill-opacity="0.7"/><rect x="905" y="352" width="3" height="2" fill="#ffb347" fill-opacity="0.7"/><rect x="915" y="335" width="51" height="25" fill="#0a0d18"/><rect x="967" y="316" width="32" height="44" fill="#0a0d18"/><rect x="1001" y="333" width="31" height="27" fill="#0a0d18"/><rect x="1032" y="320" width="35" height="40" fill="#0a0d18"/><rect x="1042" y="325" width="3" height="2" fill="#ffb347" fill-opacity="0.5"/><rect x="1040" y="333" width="3" height="2" fill="#ffb347" fill-opacity="0.7"/><rect x="1051" y="342" width="3" height="2" fill="#ffb347" fill-opacity="0.5"/><rect x="1067" y="338" width="41" height="22" fill="#0a0d18"/><rect x="1091" y="352" width="3" height="2" fill="#ffb347" fill-opacity="0.9"/><rect x="1078" y="351" width="3" height="2" fill="#ffb347" fill-opacity="0.5"/><rect x="1071" y="349" width="3" height="2" fill="#ffb347" fill-opacity="0.7"/><rect x="1113" y="344" width="37" height="16" fill="#0a0d18"/><rect x="1154" y="342" width="58" height="18" fill="#0a0d18"/><rect x="1161" y="351" width="3" height="2" fill="#ffb347" fill-opacity="0.7"/><rect x="1177" y="347" width="3" height="2" fill="#ffb347" fill-opacity="0.5"/><rect x="1161" y="349" width="3" height="2" fill="#ffb347" fill-opacity="0.9"/><rect x="1214" y="299" width="20" height="61" fill="#0a0d18"/><rect x="1222" y="325" width="3" height="2" fill="#ffb347" fill-opacity="0.5"/><rect x="1239" y="342" width="48" height="18" fill="#0a0d18"/><rect x="1243" y="352" width="3" height="2" fill="#ffb347" fill-opacity="0.7"/><rect x="1278" y="346" width="3" height="2" fill="#ffb347" fill-opacity="0.9"/><rect x="1266" y="349" width="3" height="2" fill="#ffb347" fill-opacity="0.9"/></g>
  <g><line x1="663" y1="37" x2="652" y2="88" stroke="#9ec9ff" stroke-opacity="0.06" stroke-width="1"/><line x1="148" y1="234" x2="141" y2="266" stroke="#9ec9ff" stroke-opacity="0.12" stroke-width="1"/><line x1="1193" y1="-11" x2="1180" y2="47" stroke="#9ec9ff" stroke-opacity="0.09" stroke-width="1"/><line x1="76" y1="4" x2="64" y2="57" stroke="#9ec9ff" stroke-opacity="0.16" stroke-width="1"/><line x1="143" y1="83" x2="136" y2="114" stroke="#9ec9ff" stroke-opacity="0.16" stroke-width="1"/><line x1="121" y1="249" x2="114" y2="282" stroke="#9ec9ff" stroke-opacity="0.09" stroke-width="1"/><line x1="1193" y1="-9" x2="1179" y2="53" stroke="#9ec9ff" stroke-opacity="0.16" stroke-width="1"/><line x1="101" y1="73" x2="95" y2="101" stroke="#9ec9ff" stroke-opacity="0.09" stroke-width="1"/><line x1="593" y1="174" x2="585" y2="209" stroke="#9ec9ff" stroke-opacity="0.06" stroke-width="1"/><line x1="1169" y1="117" x2="1156" y2="178" stroke="#9ec9ff" stroke-opacity="0.09" stroke-width="1"/><line x1="211" y1="257" x2="197" y2="319" stroke="#9ec9ff" stroke-opacity="0.09" stroke-width="1"/><line x1="762" y1="9" x2="749" y2="70" stroke="#9ec9ff" stroke-opacity="0.06" stroke-width="1"/><line x1="1155" y1="-10" x2="1141" y2="55" stroke="#9ec9ff" stroke-opacity="0.09" stroke-width="1"/><line x1="1016" y1="308" x2="1003" y2="368" stroke="#9ec9ff" stroke-opacity="0.16" stroke-width="1"/><line x1="643" y1="198" x2="629" y2="261" stroke="#9ec9ff" stroke-opacity="0.16" stroke-width="1"/><line x1="740" y1="113" x2="731" y2="154" stroke="#9ec9ff" stroke-opacity="0.09" stroke-width="1"/><line x1="499" y1="1" x2="485" y2="63" stroke="#9ec9ff" stroke-opacity="0.12" stroke-width="1"/><line x1="1075" y1="213" x2="1065" y2="260" stroke="#9ec9ff" stroke-opacity="0.16" stroke-width="1"/><line x1="589" y1="271" x2="582" y2="301" stroke="#9ec9ff" stroke-opacity="0.06" stroke-width="1"/><line x1="1048" y1="174" x2="1040" y2="210" stroke="#9ec9ff" stroke-opacity="0.12" stroke-width="1"/><line x1="311" y1="210" x2="300" y2="262" stroke="#9ec9ff" stroke-opacity="0.06" stroke-width="1"/><line x1="158" y1="245" x2="144" y2="307" stroke="#9ec9ff" stroke-opacity="0.12" stroke-width="1"/><line x1="696" y1="315" x2="685" y2="363" stroke="#9ec9ff" stroke-opacity="0.16" stroke-width="1"/><line x1="1187" y1="193" x2="1180" y2="223" stroke="#9ec9ff" stroke-opacity="0.06" stroke-width="1"/><line x1="552" y1="202" x2="537" y2="272" stroke="#9ec9ff" stroke-opacity="0.06" stroke-width="1"/><line x1="124" y1="319" x2="114" y2="364" stroke="#9ec9ff" stroke-opacity="0.16" stroke-width="1"/><line x1="582" y1="326" x2="571" y2="376" stroke="#9ec9ff" stroke-opacity="0.12" stroke-width="1"/><line x1="46" y1="196" x2="35" y2="244" stroke="#9ec9ff" stroke-opacity="0.09" stroke-width="1"/><line x1="1251" y1="19" x2="1238" y2="76" stroke="#9ec9ff" stroke-opacity="0.06" stroke-width="1"/><line x1="446" y1="107" x2="439" y2="141" stroke="#9ec9ff" stroke-opacity="0.09" stroke-width="1"/><line x1="814" y1="160" x2="801" y2="217" stroke="#9ec9ff" stroke-opacity="0.06" stroke-width="1"/><line x1="340" y1="189" x2="329" y2="240" stroke="#9ec9ff" stroke-opacity="0.12" stroke-width="1"/><line x1="280" y1="180" x2="267" y2="241" stroke="#9ec9ff" stroke-opacity="0.12" stroke-width="1"/><line x1="850" y1="143" x2="835" y2="212" stroke="#9ec9ff" stroke-opacity="0.16" stroke-width="1"/><line x1="472" y1="37" x2="465" y2="68" stroke="#9ec9ff" stroke-opacity="0.09" stroke-width="1"/><line x1="309" y1="78" x2="294" y2="146" stroke="#9ec9ff" stroke-opacity="0.09" stroke-width="1"/><line x1="24" y1="208" x2="10" y2="271" stroke="#9ec9ff" stroke-opacity="0.09" stroke-width="1"/><line x1="538" y1="104" x2="532" y2="130" stroke="#9ec9ff" stroke-opacity="0.09" stroke-width="1"/><line x1="858" y1="233" x2="847" y2="282" stroke="#9ec9ff" stroke-opacity="0.12" stroke-width="1"/><line x1="257" y1="313" x2="244" y2="371" stroke="#9ec9ff" stroke-opacity="0.06" stroke-width="1"/><line x1="935" y1="308" x2="922" y2="369" stroke="#9ec9ff" stroke-opacity="0.16" stroke-width="1"/><line x1="815" y1="164" x2="804" y2="215" stroke="#9ec9ff" stroke-opacity="0.06" stroke-width="1"/><line x1="986" y1="284" x2="975" y2="335" stroke="#9ec9ff" stroke-opacity="0.06" stroke-width="1"/><line x1="390" y1="-6" x2="381" y2="33" stroke="#9ec9ff" stroke-opacity="0.16" stroke-width="1"/><line x1="332" y1="16" x2="322" y2="63" stroke="#9ec9ff" stroke-opacity="0.06" stroke-width="1"/><line x1="209" y1="-40" x2="195" y2="22" stroke="#9ec9ff" stroke-opacity="0.09" stroke-width="1"/><line x1="1098" y1="11" x2="1087" y2="60" stroke="#9ec9ff" stroke-opacity="0.06" stroke-width="1"/><line x1="144" y1="66" x2="130" y2="131" stroke="#9ec9ff" stroke-opacity="0.16" stroke-width="1"/><line x1="304" y1="284" x2="295" y2="326" stroke="#9ec9ff" stroke-opacity="0.12" stroke-width="1"/><line x1="1233" y1="146" x2="1221" y2="202" stroke="#9ec9ff" stroke-opacity="0.06" stroke-width="1"/><line x1="236" y1="209" x2="224" y2="264" stroke="#9ec9ff" stroke-opacity="0.16" stroke-width="1"/><line x1="990" y1="119" x2="983" y2="150" stroke="#9ec9ff" stroke-opacity="0.09" stroke-width="1"/><line x1="209" y1="135" x2="200" y2="177" stroke="#9ec9ff" stroke-opacity="0.16" stroke-width="1"/><line x1="330" y1="224" x2="324" y2="251" stroke="#9ec9ff" stroke-opacity="0.09" stroke-width="1"/><line x1="1081" y1="145" x2="1073" y2="180" stroke="#9ec9ff" stroke-opacity="0.06" stroke-width="1"/><line x1="1081" y1="112" x2="1066" y2="179" stroke="#9ec9ff" stroke-opacity="0.06" stroke-width="1"/><line x1="534" y1="225" x2="523" y2="274" stroke="#9ec9ff" stroke-opacity="0.09" stroke-width="1"/><line x1="728" y1="74" x2="715" y2="134" stroke="#9ec9ff" stroke-opacity="0.12" stroke-width="1"/><line x1="456" y1="273" x2="448" y2="311" stroke="#9ec9ff" stroke-opacity="0.09" stroke-width="1"/><line x1="820" y1="76" x2="812" y2="114" stroke="#9ec9ff" stroke-opacity="0.16" stroke-width="1"/><line x1="728" y1="-26" x2="722" y2="1" stroke="#9ec9ff" stroke-opacity="0.12" stroke-width="1"/><line x1="967" y1="92" x2="959" y2="130" stroke="#9ec9ff" stroke-opacity="0.12" stroke-width="1"/><line x1="915" y1="330" x2="904" y2="378" stroke="#9ec9ff" stroke-opacity="0.12" stroke-width="1"/><line x1="164" y1="72" x2="157" y2="104" stroke="#9ec9ff" stroke-opacity="0.09" stroke-width="1"/><line x1="962" y1="60" x2="952" y2="107" stroke="#9ec9ff" stroke-opacity="0.09" stroke-width="1"/><line x1="988" y1="279" x2="974" y2="344" stroke="#9ec9ff" stroke-opacity="0.06" stroke-width="1"/><line x1="981" y1="294" x2="970" y2="342" stroke="#9ec9ff" stroke-opacity="0.06" stroke-width="1"/><line x1="245" y1="158" x2="237" y2="196" stroke="#9ec9ff" stroke-opacity="0.16" stroke-width="1"/><line x1="365" y1="182" x2="350" y2="248" stroke="#9ec9ff" stroke-opacity="0.12" stroke-width="1"/><line x1="177" y1="329" x2="166" y2="380" stroke="#9ec9ff" stroke-opacity="0.16" stroke-width="1"/></g>
  <!-- top and bottom rules with ticks -->
  <g stroke="#ff7a3d" stroke-opacity=".55" stroke-width="1">
    <line x1="290" y1="76" x2="989" y2="76"/><line x1="290" y1="236" x2="989" y2="236"/>
    <line x1="290" y1="70" x2="290" y2="82"/><line x1="989" y1="70" x2="989" y2="82"/>
    <line x1="290" y1="230" x2="290" y2="242"/><line x1="989" y1="230" x2="989" y2="242"/>
  </g>
  <!-- reticle -->
  <g transform="translate(1128 128)" fill="none" stroke="#5fd4ff" stroke-opacity=".5" stroke-width="1.2">
    <circle r="34"/><circle r="20" stroke-opacity=".35"/><circle r="3" fill="#5fd4ff" fill-opacity=".6"/>
    <line x1="-48" y1="0" x2="-26" y2="0"/><line x1="26" y1="0" x2="48" y2="0"/>
    <line x1="0" y1="-48" x2="0" y2="-26"/><line x1="0" y1="26" x2="0" y2="48"/>
  </g>
  <!-- title: geometric strokes, neon glow behind a bright core -->
  <g transform="translate(0 110)" fill="none" stroke-linejoin="miter" stroke-linecap="butt">
    <path d="M290 0 V100 H320 Q365 100 365 50 Q365 0 320 0 Z M464 0 H399 V100 H464 M399 50 H449 M566 14 Q552 0 532 0 Q498 0 498 50 Q498 100 532 100 Q552 100 566 86 M600 0 V100 M666 0 L600 56 M622 40 L668 100 M702 100 L738 0 L774 100 M714 70 H762 M808 100 V0 H848 Q880 0 880 27 Q880 54 848 54 H808 M848 54 L882 100 M914 0 V100 H944 Q989 100 989 50 Q989 0 944 0 Z" stroke="#ff6a2b" stroke-width="10" filter="url(#glow)" stroke-opacity=".95"/>
    <path d="M290 0 V100 H320 Q365 100 365 50 Q365 0 320 0 Z M464 0 H399 V100 H464 M399 50 H449 M566 14 Q552 0 532 0 Q498 0 498 50 Q498 100 532 100 Q552 100 566 86 M600 0 V100 M666 0 L600 56 M622 40 L668 100 M702 100 L738 0 L774 100 M714 70 H762 M808 100 V0 H848 Q880 0 880 27 Q880 54 848 54 H808 M848 54 L882 100 M914 0 V100 H944 Q989 100 989 50 Q989 0 944 0 Z" stroke="#ffd9bf" stroke-width="4.5"/>
  </g>
  <text x="640" y="276" text-anchor="middle" font-family="'Helvetica Neue',Helvetica,Arial,sans-serif" font-size="15" font-weight="300" letter-spacing="9" fill="#a9bcd0">CONTINUOUS · EXTERNAL · ATTACK-SURFACE MONITORING</text>
  <text x="640" y="304" text-anchor="middle" font-family="'Helvetica Neue',Helvetica,Arial,sans-serif" font-size="12" font-style="italic" font-weight="300" letter-spacing="3" fill="#ff9a62" fill-opacity=".9">hunt the replicants in your DNS</text>
</svg>
