<svg xmlns="http://www.w3.org/2000/svg" width="1280" height="480" viewBox="0 0 1280 480" role="img" aria-labelledby="title description">
  <title id="title">Deckard — external attack surface monitoring</title>
  <desc id="description">A gold, vector-built Deckard wordmark over a rain-soaked futuristic skyline. Amber and cyan scan traces pick out the city beneath it. External attack surface monitoring. Hunt the replicants in your DNS.</desc>
  <defs>
    <linearGradient id="night" x2="0" y2="1">
      <stop stop-color="#080b10"/>
      <stop offset="1" stop-color="#12191f"/>
    </linearGradient>
    <radialGradient id="amber-haze" cx=".79" cy=".76" r=".55">
      <stop stop-color="#c97725" stop-opacity=".27"/>
      <stop offset=".55" stop-color="#a25522" stop-opacity=".08"/>
      <stop offset="1" stop-color="#a25522" stop-opacity="0"/>
    </radialGradient>
    <radialGradient id="cyan-haze" cx=".15" cy=".76" r=".42">
      <stop stop-color="#57b8c2" stop-opacity=".15"/>
      <stop offset="1" stop-color="#57b8c2" stop-opacity="0"/>
    </radialGradient>
    <linearGradient id="gold" x2="0" y2="1">
      <stop stop-color="#ffe2a4"/>
      <stop offset=".5" stop-color="#f4bf68"/>
      <stop offset="1" stop-color="#d28b3f"/>
    </linearGradient>
    <linearGradient id="horizon">
      <stop stop-color="#efaa4e" stop-opacity="0"/>
      <stop offset=".6" stop-color="#efaa4e" stop-opacity=".65"/>
      <stop offset="1" stop-color="#efaa4e" stop-opacity="0"/>
    </linearGradient>
    <linearGradient id="scan">
      <stop stop-color="#71dde4" stop-opacity="0"/>
      <stop offset=".4" stop-color="#71dde4" stop-opacity=".65"/>
      <stop offset=".8" stop-color="#71dde4" stop-opacity=".15"/>
      <stop offset="1" stop-color="#71dde4" stop-opacity="0"/>
    </linearGradient>
    <linearGradient id="ground" x2="0" y2="1">
      <stop stop-color="#090e14" stop-opacity="0"/>
      <stop offset=".4" stop-color="#090e14"/>
      <stop offset="1" stop-color="#090e14"/>
    </linearGradient>
    <pattern id="rain" width="117" height="133" patternUnits="userSpaceOnUse">
      <path d="M13 2l-10 30M69 48l-14 44M108 101l-9 27" fill="none" stroke="#96b9bd" stroke-width="1" opacity=".18"/>
      <path d="M39 77l-4 12M97 15l-5 17" fill="none" stroke="#96b9bd" stroke-width=".6" opacity=".12"/>
    </pattern>
    <pattern id="windows" width="15" height="18" patternUnits="userSpaceOnUse">
      <path d="M3 4h3v5H3zM10 4h2v5h-2z" fill="#f1b765" opacity=".42"/>
    </pattern>
    <pattern id="terminal-lines" width="4" height="4" patternUnits="userSpaceOnUse">
      <path d="M0 .5h4" stroke="#000" stroke-opacity=".12"/>
    </pattern>
    <clipPath id="frame"><path d="M20 0h1260v460l-20 20H0V20z"/></clipPath>
    <mask id="stencil">
      <rect width="1000" height="128" fill="#fff"/>
      <path d="M0 66h1000v1.4H0zM0 95h1000v.7H0z" fill="#000"/>
    </mask>
    <!-- The display letters are custom geometry, not a system font. -->
    <path id="letter-d" d="M0 0h78l30 30v68l-30 30H0zM26 26v76h39l17-17V43L65 26z"/>
    <path id="letter-e" d="M0 0h100v24H26v26h62v24H26v30h74v24H0z"/>
    <path id="letter-c" d="M30 0h78v26H43L26 43v42l17 17h65v26H30L0 98V30z"/>
    <path id="letter-k" d="M0 0h26v47L75 0h35L52 63l61 65H76L26 79v49H0z"/>
    <path id="letter-a" d="M0 128L43 0h37l43 128H94L84 97H39l-10 31zM47 73h29L62 29z"/>
    <path id="letter-r" d="M0 0h80l28 28v39L87 88l30 40H83L57 92H26v36H0zM26 24v43h40l16-15V39L67 24z"/>
    <!-- Supporting typography is outlined too: no font downloads or fallbacks. -->
    <path id="recon-label" d="M6.1 10.2L7.4 10.2L2 -1.3L0.7 -1.3ZM15.7 10.2L17 10.2L11.6 -1.3L10.3 -1.3ZM36.2 0.4Q35.7 0.1 35.1 -0.1Q34.6 -0.2 34 -0.2Q32 -0.2 30.9 1.2Q29.8 2.6 29.8 5.1Q29.8 7.6 30.9 9Q32 10.4 34 10.4Q34.6 10.4 35.1 10.3Q35.7 10.1 36.2 9.8L36.2 8.4Q35.7 8.8 35.1 9.1Q34.6 9.3 34 9.3Q32.6 9.3 31.9 8.2Q31.3 7.2 31.3 5.1Q31.3 3 31.9 2Q32.6 0.9 34 0.9Q34.6 0.9 35.1 1.1Q35.7 1.4 36.2 1.8ZM44.7 5.1Q44.7 7.3 44.2 8.3Q43.8 9.3 42.7 9.3Q41.7 9.3 41.2 8.3Q40.8 7.3 40.8 5.1Q40.8 2.9 41.2 1.9Q41.7 0.9 42.7 0.9Q43.8 0.9 44.2 1.9Q44.7 2.8 44.7 5.1ZM46.1 5.1Q46.1 2.4 45.3 1.1Q44.5 -0.2 42.7 -0.2Q41 -0.2 40.2 1.1Q39.3 2.4 39.3 5.1Q39.3 7.8 40.2 9.1Q41 10.4 42.7 10.4Q44.5 10.4 45.3 9.1Q46.1 7.8 46.1 5.1ZM48.3 10.2L50.2 10.2L54.2 1.8L54.2 10.2L55.6 10.2L55.6 0L53.7 0L49.7 8.4L49.7 0L48.3 0ZM58.1 10.2L65.9 10.2L65.9 9L62.7 9L62.7 0L61.3 0L61.3 9L58.1 9ZM68.8 10.2L74.4 10.2L74.4 9L72.3 9L72.3 1.2L74.4 1.2L74.4 0L68.8 0L68.8 1.2L70.9 1.2L70.9 9L68.8 9ZM77.2 10.2L79 10.2L83 1.8L83 10.2L84.5 10.2L84.5 0L82.6 0L78.6 8.4L78.6 0L77.2 0ZM87.7 3.9L87.7 10.2L89.1 10.2L89.1 3.3Q89.1 2.5 89.1 2.2Q89.1 1.9 89.2 1.7Q89.5 1.3 89.9 1.1Q90.3 0.9 90.9 0.9Q91.5 0.9 91.9 1.1Q92.3 1.3 92.5 1.7Q92.6 1.9 92.7 2.2Q92.7 2.5 92.7 3.3L92.7 10.2L94.1 10.2L94.1 3.9Q94.1 2.4 93.9 1.7Q93.7 1 93.2 0.6Q92.8 0.2 92.2 0Q91.6 -0.2 90.9 -0.2Q90.2 -0.2 89.6 0Q89 0.2 88.5 0.6Q88.1 1 87.9 1.7Q87.7 2.4 87.7 3.9ZM102.5 5.1Q102.5 7.3 102 8.3Q101.6 9.3 100.5 9.3Q99.5 9.3 99 8.3Q98.5 7.3 98.5 5.1Q98.5 2.9 99 1.9Q99.5 0.9 100.5 0.9Q101.6 0.9 102 1.9Q102.5 2.8 102.5 5.1ZM103.9 5.1Q103.9 2.4 103.1 1.1Q102.2 -0.2 100.5 -0.2Q98.8 -0.2 97.9 1.1Q97.1 2.4 97.1 5.1Q97.1 7.8 97.9 9.1Q98.8 10.4 100.5 10.4Q102.2 10.4 103.1 9.1Q103.9 7.8 103.9 5.1ZM106.9 3.9L106.9 10.2L108.3 10.2L108.3 3.3Q108.3 2.5 108.3 2.2Q108.4 1.9 108.5 1.7Q108.7 1.3 109.1 1.1Q109.5 0.9 110.1 0.9Q110.7 0.9 111.1 1.1Q111.5 1.3 111.8 1.7Q111.9 1.9 111.9 2.2Q112 2.5 112 3.3L112 10.2L113.3 10.2L113.3 3.9Q113.3 2.4 113.1 1.7Q112.9 1 112.5 0.6Q112 0.2 111.4 0Q110.9 -0.2 110.1 -0.2Q109.4 -0.2 108.8 0Q108.2 0.2 107.8 0.6Q107.3 1 107.1 1.7Q106.9 2.4 106.9 3.9ZM122.5 9.9L122.5 8.5Q121.8 8.9 121.2 9.1Q120.6 9.3 119.9 9.3Q118.9 9.3 118.4 8.8Q117.8 8.4 117.8 7.6Q117.8 6.9 118.2 6.6Q118.6 6.2 119.6 6L120.3 5.8Q121.7 5.5 122.4 4.7Q123.1 4 123.1 2.8Q123.1 1.3 122.1 0.6Q121.2 -0.2 119.5 -0.2Q118.8 -0.2 118.1 -0Q117.4 0.1 116.6 0.4L116.6 1.9Q117.4 1.4 118.1 1.2Q118.8 0.9 119.5 0.9Q120.6 0.9 121.2 1.4Q121.7 1.9 121.7 2.7Q121.7 3.5 121.3 3.9Q120.9 4.3 119.9 4.5L119.2 4.7Q117.8 5 117.1 5.6Q116.5 6.3 116.5 7.4Q116.5 8.7 117.4 9.6Q118.3 10.4 119.9 10.4Q120.4 10.4 121.1 10.3Q121.7 10.1 122.5 9.9ZM140 4.8Q140.5 4.7 140.9 4.3Q141.3 3.9 141.8 2.8L143.2 0L141.7 0L140.5 2.6Q140 3.7 139.6 4Q139.2 4.3 138.5 4.3L137.2 4.3L137.2 0L135.8 0L135.8 10.2L138.6 10.2Q140.3 10.2 141.2 9.4Q142.1 8.7 142.1 7.3Q142.1 6.2 141.5 5.6Q141 5 140 4.8ZM137.2 9.1L137.2 5.4L138.7 5.4Q139.7 5.4 140.2 5.9Q140.6 6.3 140.6 7.3Q140.6 8.1 140.1 8.6Q139.6 9.1 138.6 9.1ZM145.8 10.2L151.8 10.2L151.8 9L147.2 9L147.2 6.3L151.6 6.3L151.6 5.1L147.2 5.1L147.2 1.2L152 1.2L152 0L145.8 0ZM161.4 0.4Q160.9 0.1 160.3 -0.1Q159.8 -0.2 159.1 -0.2Q157.2 -0.2 156.1 1.2Q155 2.6 155 5.1Q155 7.6 156.1 9Q157.2 10.4 159.1 10.4Q159.8 10.4 160.3 10.3Q160.9 10.1 161.4 9.8L161.4 8.4Q160.9 8.8 160.3 9.1Q159.7 9.3 159.1 9.3Q157.8 9.3 157.1 8.2Q156.5 7.2 156.5 5.1Q156.5 3 157.1 2Q157.8 0.9 159.1 0.9Q159.7 0.9 160.3 1.1Q160.9 1.4 161.4 1.8ZM169.9 5.1Q169.9 7.3 169.4 8.3Q169 9.3 167.9 9.3Q166.9 9.3 166.4 8.3Q165.9 7.3 165.9 5.1Q165.9 2.9 166.4 1.9Q166.9 0.9 167.9 0.9Q169 0.9 169.4 1.9Q169.9 2.8 169.9 5.1ZM171.3 5.1Q171.3 2.4 170.5 1.1Q169.6 -0.2 167.9 -0.2Q166.2 -0.2 165.3 1.1Q164.5 2.4 164.5 5.1Q164.5 7.8 165.3 9.1Q166.2 10.4 167.9 10.4Q169.6 10.4 170.5 9.1Q171.3 7.8 171.3 5.1ZM173.4 10.2L175.3 10.2L179.3 1.8L179.3 10.2L180.8 10.2L180.8 0L178.9 0L174.9 8.4L174.9 0L173.4 0ZM183.1 10.2L185 10.2L189 1.8L189 10.2L190.4 10.2L190.4 0L188.5 0L184.5 8.4L184.5 0L183.1 0ZM196.8 9L195.3 3.8L198.2 3.8ZM196 10.2L197.6 10.2L200.7 0L199.3 0L198.6 2.7L195 2.7L194.3 0L192.8 0ZM203.6 10.2L209.2 10.2L209.2 9L207.1 9L207.1 1.2L209.2 1.2L209.2 0L203.6 0L203.6 1.2L205.7 1.2L205.7 9L203.6 9ZM218.7 9.9L218.7 8.5Q218.1 8.9 217.5 9.1Q216.9 9.3 216.2 9.3Q215.2 9.3 214.7 8.8Q214.1 8.4 214.1 7.6Q214.1 6.9 214.5 6.6Q214.8 6.2 215.9 6L216.6 5.8Q218 5.5 218.7 4.7Q219.3 4 219.3 2.8Q219.3 1.3 218.4 0.6Q217.5 -0.2 215.8 -0.2Q215.1 -0.2 214.4 -0Q213.6 0.1 212.9 0.4L212.9 1.9Q213.7 1.4 214.4 1.2Q215.1 0.9 215.8 0.9Q216.9 0.9 217.4 1.4Q218 1.9 218 2.7Q218 3.5 217.6 3.9Q217.2 4.3 216.2 4.5L215.5 4.7Q214.1 5 213.4 5.6Q212.8 6.3 212.8 7.4Q212.8 8.7 213.7 9.6Q214.6 10.4 216.1 10.4Q216.7 10.4 217.4 10.3Q218 10.1 218.7 9.9ZM228.4 9.9L228.4 8.5Q227.7 8.9 227.1 9.1Q226.5 9.3 225.8 9.3Q224.9 9.3 224.3 8.8Q223.7 8.4 223.7 7.6Q223.7 6.9 224.1 6.6Q224.5 6.2 225.5 6L226.2 5.8Q227.7 5.5 228.3 4.7Q229 4 229 2.8Q229 1.3 228.1 0.6Q227.2 -0.2 225.4 -0.2Q224.7 -0.2 224 -0Q223.3 0.1 222.5 0.4L222.5 1.9Q223.3 1.4 224 1.2Q224.7 0.9 225.4 0.9Q226.5 0.9 227.1 1.4Q227.6 1.9 227.6 2.7Q227.6 3.5 227.2 3.9Q226.8 4.3 225.9 4.5L225.1 4.7Q223.7 5 223.1 5.6Q222.4 6.3 222.4 7.4Q222.4 8.7 223.3 9.6Q224.2 10.4 225.8 10.4Q226.4 10.4 227 10.3Q227.7 10.1 228.4 9.9ZM235.3 9L233.8 3.8L236.8 3.8ZM234.5 10.2L236.1 10.2L239.3 0L237.8 0L237.1 2.7L233.5 2.7L232.8 0L231.3 0ZM240.8 10.2L242.7 10.2L246.7 1.8L246.7 10.2L248.2 10.2L248.2 0L246.3 0L242.3 8.4L242.3 0L240.8 0ZM257.7 0.4Q257.2 0.1 256.6 -0.1Q256 -0.2 255.4 -0.2Q253.5 -0.2 252.4 1.2Q251.3 2.6 251.3 5.1Q251.3 7.6 252.4 9Q253.5 10.4 255.4 10.4Q256 10.4 256.6 10.3Q257.2 10.1 257.7 9.8L257.7 8.4Q257.2 8.8 256.6 9.1Q256 9.3 255.4 9.3Q254.1 9.3 253.4 8.2Q252.7 7.2 252.7 5.1Q252.7 3 253.4 2Q254.1 0.9 255.4 0.9Q256 0.9 256.6 1.1Q257.2 1.4 257.7 1.8ZM261.3 10.2L267.4 10.2L267.4 9L262.7 9L262.7 6.3L267.2 6.3L267.2 5.1L262.7 5.1L262.7 1.2L267.5 1.2L267.5 0L261.3 0Z"/>
    <path id="monitoring-label" d="M13.9 0L2.1 0L2.1 19L13.9 19L13.9 15.7L5.9 15.7L5.9 11.6L13.2 11.6L13.2 8.3L5.9 8.3L5.9 3.3L13.9 3.3ZM32.4 0L28.5 0L24.9 6.3L21.3 0L17.4 0L23 9.6L17.5 19L21.4 19L24.9 12.9L28.3 19L32.2 19L26.8 9.6ZM43.8 0L40.1 0L40.1 15.7L35.2 15.7L35.2 19L48.6 19L48.6 15.7L43.8 15.7ZM65.1 0L53.3 0L53.3 19L65.1 19L65.1 15.7L57 15.7L57 11.6L64.3 11.6L64.3 8.3L57 8.3L57 3.3L65.1 3.3ZM78.5 9Q79 8.8 79.4 8.4Q79.8 8 80.4 6.8L83.9 0L79.8 0L77.5 4.8Q77.4 5 77.2 5.3Q76.2 7.5 74.8 7.5L73.6 7.5L73.6 0L69.9 0L69.9 19L75.3 19Q79 19 80.6 17.7Q82.2 16.4 82.2 13.4Q82.2 11.5 81.2 10.3Q80.2 9.2 78.5 9ZM73.6 15.8L73.6 10.6L75.4 10.6Q76.9 10.6 77.6 11.2Q78.3 11.8 78.3 13.2Q78.3 14.6 77.6 15.2Q77 15.8 75.4 15.8ZM86.8 19L90.8 19L96.1 5.2L96.1 19L99.4 19L99.4 0L95.4 0L90.1 13.8L90.1 0L86.8 0ZM110.1 15.5L108.4 7.8L111.9 7.8ZM107.9 19L112.4 19L117.6 0L113.8 0L112.6 4.7L107.6 4.7L106.5 0L102.7 0ZM122.2 0L122.2 19L126 19L126 3.3L134 3.3L134 0ZM161.3 15.5L159.5 7.8L163.1 7.8ZM159 19L163.6 19L168.7 0L165 0L163.8 4.7L158.8 4.7L157.6 0L153.9 0ZM180.2 0L176.5 0L176.5 15.7L171.7 15.7L171.7 19L185 19L185 15.7L180.2 15.7ZM197.3 0L193.5 0L193.5 15.7L188.7 15.7L188.7 19L202.1 19L202.1 15.7L197.3 15.7ZM212.5 15.5L210.7 7.8L214.2 7.8ZM210.2 19L214.8 19L219.9 0L216.1 0L215 4.7L209.9 4.7L208.8 0L205.1 0ZM235.4 0.5Q234.5 0.1 233.6 -0.1Q232.6 -0.4 231.5 -0.4Q227.7 -0.4 225.6 2.2Q223.6 4.7 223.6 9.5Q223.6 14.2 225.6 16.8Q227.7 19.3 231.5 19.3Q232.6 19.3 233.6 19.1Q234.6 18.8 235.4 18.4L235.4 14.2Q234.5 15.1 233.5 15.5Q232.6 15.9 231.7 15.9Q229.6 15.9 228.6 14.3Q227.5 12.7 227.5 9.5Q227.5 6.3 228.6 4.6Q229.6 3 231.7 3Q232.6 3 233.5 3.4Q234.5 3.8 235.4 4.7ZM240.2 19L244 19L244 11.5L249.8 19L254.1 19L248.1 11.5L254.3 0L250.1 0L245.6 8.5L244 6.4L244 0L240.2 0ZM279.3 8.3Q276.5 9.4 275.5 10.6Q274.5 11.8 274.5 13.8Q274.5 16.4 276.1 17.8Q277.8 19.3 280.7 19.3Q282 19.3 283.3 19Q284.6 18.7 285.9 18.1L285.9 14.5Q284.7 15.3 283.4 15.8Q282.2 16.2 281 16.2Q279.6 16.2 278.9 15.7Q278.2 15.1 278.2 14.1Q278.2 13.3 278.7 12.8Q279.2 12.3 280.9 11.7L282.5 11Q284.8 10.2 285.9 8.8Q286.9 7.4 286.9 5.3Q286.9 2.5 285.3 1Q283.6 -0.4 280.1 -0.4Q278.7 -0.4 277.3 -0Q275.9 0.3 274.6 1L274.6 4.8Q276.1 3.8 277.5 3.2Q278.9 2.7 280.2 2.7Q281.6 2.7 282.4 3.4Q283.1 4 283.1 5.1Q283.1 6 282.6 6.6Q282.1 7.2 281.2 7.6ZM291.3 7L291.3 19L295 19L295 6.1Q295 4.6 295.7 3.8Q296.4 3 297.7 3Q299 3 299.7 3.8Q300.5 4.6 300.5 6.1L300.5 19L304.2 19L304.2 7Q304.2 3.1 302.7 1.4Q301.1 -0.4 297.7 -0.4Q294.3 -0.4 292.8 1.4Q291.3 3.1 291.3 7ZM317.2 9Q317.8 8.8 318.2 8.4Q318.6 8 319.2 6.8L322.6 0L318.5 0L316.2 4.8Q316.1 5 315.9 5.3Q314.9 7.5 313.6 7.5L312.4 7.5L312.4 0L308.6 0L308.6 19L314.1 19Q317.7 19 319.3 17.7Q320.9 16.4 320.9 13.4Q320.9 11.5 319.9 10.3Q319 9.2 317.2 9ZM312.4 15.8L312.4 10.6L314.2 10.6Q315.7 10.6 316.4 11.2Q317 11.8 317 13.2Q317 14.6 316.4 15.2Q315.7 15.8 314.2 15.8ZM338.1 15.7L330.1 15.7L330.1 11.6L337.4 11.6L337.4 8.3L330.1 8.3L330.1 0L326.3 0L326.3 19L338.1 19ZM348.9 15.5L347.1 7.8L350.7 7.8ZM346.6 19L351.2 19L356.3 0L352.6 0L351.4 4.7L346.4 4.7L345.2 0L341.5 0ZM371.8 0.5Q371 0.1 370 -0.1Q369 -0.4 367.9 -0.4Q364.1 -0.4 362.1 2.2Q360 4.7 360 9.5Q360 14.2 362.1 16.8Q364.1 19.3 367.9 19.3Q369 19.3 370 19.1Q371 18.8 371.8 18.4L371.8 14.2Q370.9 15.1 370 15.5Q369.1 15.9 368.1 15.9Q366 15.9 365 14.3Q363.9 12.7 363.9 9.5Q363.9 6.3 365 4.6Q366 3 368.1 3Q369.1 3 370 3.4Q370.9 3.8 371.8 4.7ZM389.1 0L377.3 0L377.3 19L389.1 19L389.1 15.7L381.1 15.7L381.1 11.6L388.4 11.6L388.4 8.3L381.1 8.3L381.1 3.3L389.1 3.3ZM410.4 19L414.8 19L417.1 10.6L419.3 19L423.8 19L423.8 0L420.6 0L420.6 15.2L418.6 6.9L415.6 6.9L413.6 15.2L413.6 0L410.4 0ZM434.2 15.9Q432.7 15.9 432.1 14.4Q431.4 12.9 431.4 9.5Q431.4 6.1 432.1 4.5Q432.7 3 434.2 3Q435.6 3 436.3 4.5Q436.9 6.1 436.9 9.5Q436.9 12.9 436.3 14.4Q435.6 15.9 434.2 15.9ZM427.5 9.5Q427.5 14.3 429.2 16.8Q430.9 19.3 434.2 19.3Q437.5 19.3 439.1 16.8Q440.8 14.3 440.8 9.5Q440.8 4.6 439.1 2.1Q437.5 -0.4 434.2 -0.4Q430.9 -0.4 429.2 2.1Q427.5 4.6 427.5 9.5ZM444.9 19L448.9 19L454.2 5.2L454.2 19L457.5 19L457.5 0L453.5 0L448.2 13.8L448.2 0L444.9 0ZM462.6 15.7L462.6 19L473.9 19L473.9 15.7L470.1 15.7L470.1 3.3L473.9 3.3L473.9 0L462.6 0L462.6 3.3L466.4 3.3L466.4 15.7ZM487.2 0L483.4 0L483.4 15.7L478.6 15.7L478.6 19L492 19L492 15.7L487.2 15.7ZM502.4 15.9Q500.9 15.9 500.3 14.4Q499.6 12.9 499.6 9.5Q499.6 6.1 500.3 4.5Q500.9 3 502.4 3Q503.8 3 504.5 4.5Q505.1 6.1 505.1 9.5Q505.1 12.9 504.5 14.4Q503.8 15.9 502.4 15.9ZM495.7 9.5Q495.7 14.3 497.4 16.8Q499.1 19.3 502.4 19.3Q505.7 19.3 507.3 16.8Q509 14.3 509 9.5Q509 4.6 507.3 2.1Q505.7 -0.4 502.4 -0.4Q499.1 -0.4 497.4 2.1Q495.7 4.6 495.7 9.5ZM521.8 9Q522.4 8.8 522.8 8.4Q523.2 8 523.8 6.8L527.3 0L523.1 0L520.9 4.8Q520.8 5 520.6 5.3Q519.6 7.5 518.2 7.5L517 7.5L517 0L513.3 0L513.3 19L518.7 19Q522.4 19 523.9 17.7Q525.5 16.4 525.5 13.4Q525.5 11.5 524.6 10.3Q523.6 9.2 521.8 9ZM517 15.8L517 10.6L518.8 10.6Q520.3 10.6 521 11.2Q521.7 11.8 521.7 13.2Q521.7 14.6 521 15.2Q520.3 15.8 518.8 15.8ZM530.8 15.7L530.8 19L542.1 19L542.1 15.7L538.4 15.7L538.4 3.3L542.1 3.3L542.1 0L530.8 0L530.8 3.3L534.6 3.3L534.6 15.7ZM547.2 19L551.2 19L556.5 5.2L556.5 19L559.8 19L559.8 0L555.8 0L550.5 13.8L550.5 0L547.2 0ZM573.8 3.4L573.8 7L571.3 7L571.3 10.2L577.1 10.2L577.1 1.5Q576 0.6 574.7 0.1Q573.4 -0.4 571.9 -0.4Q568.3 -0.4 566.3 2.2Q564.2 4.7 564.2 9.5Q564.2 14.2 566.3 16.8Q568.3 19.3 572.1 19.3Q573.3 19.3 574.4 19Q575.5 18.6 576.4 18L576.4 13.9Q575.6 14.9 574.6 15.4Q573.6 15.9 572.4 15.9Q570.2 15.9 569.2 14.3Q568.1 12.7 568.1 9.5Q568.1 6.3 569.2 4.6Q570.2 3 572.1 3Q572.7 3 573.1 3.1Q573.6 3.2 573.8 3.4Z"/>
    <path id="replicants-label" d="M1.2 13.1L3 13.1L3 8.1L7.8 8.1L7.8 13.1L9.6 13.1L9.6 0L7.8 0L7.8 6.6L3 6.6L3 0L1.2 0ZM13.3 5L13.3 13.1L15.1 13.1L15.1 4.2Q15.1 3.3 15.2 2.9Q15.2 2.5 15.4 2.2Q15.6 1.7 16.2 1.5Q16.7 1.2 17.5 1.2Q18.2 1.2 18.7 1.5Q19.3 1.7 19.6 2.2Q19.7 2.5 19.7 2.9Q19.8 3.3 19.8 4.2L19.8 13.1L21.6 13.1L21.6 5Q21.6 3 21.3 2.2Q21.1 1.3 20.5 0.8Q19.9 0.3 19.1 0Q18.4 -0.3 17.5 -0.3Q16.5 -0.3 15.8 0Q15 0.3 14.4 0.8Q13.8 1.3 13.6 2.2Q13.3 3 13.3 5ZM24.2 13.1L26.7 13.1L31.8 2.3L31.8 13.1L33.7 13.1L33.7 0L31.3 0L26.1 10.8L26.1 0L24.2 0ZM36.5 13.1L46.5 13.1L46.5 11.6L42.4 11.6L42.4 0L40.6 0L40.6 11.6L36.5 11.6ZM60.6 13.1L70.6 13.1L70.6 11.6L66.5 11.6L66.5 0L64.7 0L64.7 11.6L60.6 11.6ZM73.4 13.1L75.2 13.1L75.2 8.1L80.1 8.1L80.1 13.1L81.9 13.1L81.9 0L80.1 0L80.1 6.6L75.2 6.6L75.2 0L73.4 0ZM86 13.1L93.8 13.1L93.8 11.6L87.8 11.6L87.8 8.1L93.5 8.1L93.5 6.6L87.8 6.6L87.8 1.5L93.9 1.5L93.9 0L86 0ZM115 6.2Q115.7 6 116.2 5.5Q116.7 5 117.4 3.6L119.2 0L117.3 0L115.7 3.3Q115 4.7 114.5 5.1Q113.9 5.5 113.1 5.5L111.4 5.5L111.4 0L109.6 0L109.6 13.1L113.2 13.1Q115.4 13.1 116.6 12.1Q117.7 11.2 117.7 9.3Q117.7 8 117 7.2Q116.3 6.4 115 6.2ZM111.4 11.7L111.4 7L113.3 7Q114.6 7 115.2 7.6Q115.8 8.1 115.8 9.3Q115.8 10.5 115.2 11.1Q114.5 11.7 113.2 11.7ZM122.1 13.1L129.9 13.1L129.9 11.6L123.9 11.6L123.9 8.1L129.6 8.1L129.6 6.6L123.9 6.6L123.9 1.5L130.1 1.5L130.1 0L122.1 0ZM135.9 11.7L135.9 6.7L138 6.7Q139.2 6.7 139.9 7.4Q140.6 8 140.6 9.2Q140.6 10.4 139.9 11Q139.2 11.7 138 11.7ZM134.1 13.1L138 13.1Q140.2 13.1 141.3 12.1Q142.4 11.1 142.4 9.2Q142.4 7.3 141.3 6.3Q140.2 5.3 138 5.3L135.9 5.3L135.9 0L134.1 0ZM146.3 13.1L148.1 13.1L148.1 1.5L154.5 1.5L154.5 0L146.3 0ZM158.2 13.1L165.5 13.1L165.5 11.6L162.8 11.6L162.8 1.5L165.5 1.5L165.5 0L158.2 0L158.2 1.5L161 1.5L161 11.6L158.2 11.6ZM177.9 0.5Q177.3 0.1 176.6 -0.1Q175.8 -0.3 175 -0.3Q172.5 -0.3 171.1 1.5Q169.7 3.3 169.7 6.5Q169.7 9.8 171.1 11.6Q172.5 13.4 175 13.4Q175.8 13.4 176.6 13.2Q177.3 13 177.9 12.6L177.9 10.8Q177.3 11.4 176.5 11.6Q175.8 11.9 175 11.9Q173.3 11.9 172.5 10.6Q171.6 9.2 171.6 6.5Q171.6 3.9 172.5 2.5Q173.3 1.2 175 1.2Q175.8 1.2 176.6 1.5Q177.3 1.7 177.9 2.3ZM186 11.6L184.1 4.8L187.8 4.8ZM184.9 13.1L187 13.1L191.1 0L189.2 0L188.3 3.4L183.7 3.4L182.7 0L180.9 0ZM192.8 13.1L195.2 13.1L200.3 2.3L200.3 13.1L202.2 13.1L202.2 0L199.8 0L194.6 10.8L194.6 0L192.8 0ZM205 13.1L215.1 13.1L215.1 11.6L210.9 11.6L210.9 0L209.2 0L209.2 11.6L205 11.6ZM225.6 12.7L225.6 10.9Q224.8 11.4 223.9 11.7Q223.1 11.9 222.3 11.9Q221 11.9 220.3 11.3Q219.6 10.7 219.6 9.8Q219.6 8.9 220.1 8.4Q220.5 8 221.8 7.7L222.8 7.5Q224.6 7 225.5 6.1Q226.3 5.2 226.3 3.6Q226.3 1.7 225.2 0.7Q224 -0.3 221.8 -0.3Q220.9 -0.3 219.9 -0.1Q219 0.1 218.1 0.5L218.1 2.4Q219.1 1.8 220 1.5Q220.9 1.2 221.8 1.2Q223.1 1.2 223.9 1.8Q224.6 2.4 224.6 3.5Q224.6 4.5 224.1 5Q223.6 5.5 222.3 5.8L221.4 6Q219.5 6.4 218.7 7.2Q217.9 8.1 217.9 9.5Q217.9 11.2 219.1 12.3Q220.3 13.4 222.2 13.4Q223 13.4 223.8 13.2Q224.6 13 225.6 12.7ZM242.5 13.1L249.8 13.1L249.8 11.6L247 11.6L247 1.5L249.8 1.5L249.8 0L242.5 0L242.5 1.5L245.3 1.5L245.3 11.6L242.5 11.6ZM252.9 13.1L255.4 13.1L260.5 2.3L260.5 13.1L262.4 13.1L262.4 0L260 0L254.8 10.8L254.8 0L252.9 0ZM277.2 13.1L279.1 13.1L282.3 7.3L285.5 13.1L287.4 13.1L283.2 5.9L283.2 0L281.4 0L281.4 5.9ZM296.8 6.5Q296.8 9.4 296.2 10.7Q295.7 11.9 294.3 11.9Q293 11.9 292.4 10.7Q291.8 9.4 291.8 6.5Q291.8 3.7 292.4 2.4Q293 1.2 294.3 1.2Q295.7 1.2 296.2 2.4Q296.8 3.7 296.8 6.5ZM298.7 6.5Q298.7 3.1 297.6 1.4Q296.5 -0.3 294.3 -0.3Q292.1 -0.3 291 1.4Q289.9 3.1 289.9 6.5Q289.9 10 291 11.7Q292.1 13.4 294.3 13.4Q296.5 13.4 297.6 11.7Q298.7 10 298.7 6.5ZM302.2 5L302.2 13.1L304 13.1L304 4.2Q304 3.3 304.1 2.9Q304.1 2.5 304.2 2.2Q304.5 1.7 305 1.5Q305.6 1.2 306.3 1.2Q307.1 1.2 307.6 1.5Q308.2 1.7 308.4 2.2Q308.6 2.5 308.6 2.9Q308.7 3.3 308.7 4.2L308.7 13.1L310.5 13.1L310.5 5Q310.5 3 310.2 2.2Q310 1.3 309.3 0.8Q308.8 0.3 308 0Q307.3 -0.3 306.3 -0.3Q305.4 -0.3 304.7 0Q303.9 0.3 303.3 0.8Q302.7 1.3 302.5 2.2Q302.2 3 302.2 5ZM319.6 6.2Q320.3 6 320.8 5.5Q321.3 5 322 3.6L323.8 0L321.9 0L320.3 3.3Q319.6 4.7 319.1 5.1Q318.6 5.5 317.7 5.5L316 5.5L316 0L314.2 0L314.2 13.1L317.9 13.1Q320 13.1 321.2 12.1Q322.3 11.2 322.3 9.3Q322.3 8 321.6 7.2Q320.9 6.4 319.6 6.2ZM316 11.7L316 7L317.9 7Q319.2 7 319.8 7.6Q320.5 8.1 320.5 9.3Q320.5 10.5 319.8 11.1Q319.1 11.7 317.9 11.7ZM340.9 1.5Q343.1 1.5 344 2.6Q344.9 3.7 344.9 6.5Q344.9 9.5 344 10.6Q343.1 11.7 340.9 11.7L340 11.7L340 1.5ZM340.9 13.1Q343.9 13.1 345.3 11.5Q346.8 9.9 346.8 6.5Q346.8 3.2 345.3 1.6Q343.9 0 340.9 0L338.2 0L338.2 13.1ZM349.2 13.1L351.7 13.1L356.8 2.3L356.8 13.1L358.7 13.1L358.7 0L356.3 0L351.1 10.8L351.1 0L349.2 0ZM370 12.7L370 10.9Q369.2 11.4 368.4 11.7Q367.6 11.9 366.7 11.9Q365.5 11.9 364.8 11.3Q364 10.7 364 9.8Q364 8.9 364.5 8.4Q365 8 366.3 7.7L367.2 7.5Q369.1 7 369.9 6.1Q370.8 5.2 370.8 3.6Q370.8 1.7 369.6 0.7Q368.4 -0.3 366.2 -0.3Q365.3 -0.3 364.4 -0.1Q363.4 0.1 362.5 0.5L362.5 2.4Q363.5 1.8 364.4 1.5Q365.3 1.2 366.2 1.2Q367.6 1.2 368.3 1.8Q369.1 2.4 369.1 3.5Q369.1 4.5 368.5 5Q368 5.5 366.8 5.8L365.8 6Q364 6.4 363.2 7.2Q362.3 8.1 362.3 9.5Q362.3 11.2 363.5 12.3Q364.7 13.4 366.7 13.4Q367.4 13.4 368.2 13.2Q369.1 13 370 12.7Z"/>
    <path id="scope-label" d="M5.3 4.4Q5.3 6.3 4.9 7.1Q4.5 7.9 3.6 7.9Q2.7 7.9 2.3 7.1Q1.9 6.3 1.9 4.4Q1.9 2.4 2.3 1.6Q2.7 0.8 3.6 0.8Q4.5 0.8 4.9 1.6Q5.3 2.4 5.3 4.4ZM6.5 4.4Q6.5 2.1 5.8 1Q5.1 -0.2 3.6 -0.2Q2.1 -0.2 1.4 0.9Q0.7 2.1 0.7 4.4Q0.7 6.7 1.4 7.8Q2.1 8.9 3.6 8.9Q5.1 8.9 5.8 7.8Q6.5 6.7 6.5 4.4ZM8 8.7L9.2 8.7L10 1.6L11 6.3L12.2 6.3L13.3 1.6L14.1 8.7L15.2 8.7L13.9 0L12.8 0L11.6 5.2L10.5 0L9.3 0ZM16.2 8.7L17.8 8.7L21.2 1.5L21.2 8.7L22.5 8.7L22.5 0L20.8 0L17.4 7.2L17.4 0L16.2 0ZM25.2 8.7L30.4 8.7L30.4 7.8L26.4 7.8L26.4 5.4L30.2 5.4L30.2 4.4L26.4 4.4L26.4 1L30.5 1L30.5 0L25.2 0ZM34.7 1Q36.1 1 36.7 1.7Q37.3 2.4 37.3 4.4Q37.3 6.3 36.7 7Q36.2 7.8 34.7 7.8L34.1 7.8L34.1 1ZM34.7 8.7Q36.7 8.7 37.6 7.7Q38.6 6.6 38.6 4.4Q38.6 2.1 37.6 1.1Q36.7 0 34.7 0L32.9 0L32.9 8.7ZM53.4 8.7L54.5 8.7L49.9 -1.1L48.7 -1.1ZM67.8 1L69.9 8.7L71.1 8.7L68.5 0L67.1 0L64.5 8.7L65.8 8.7ZM73.4 8.7L78.6 8.7L78.6 7.8L74.6 7.8L74.6 5.4L78.4 5.4L78.4 4.4L74.6 4.4L74.6 1L78.7 1L78.7 0L73.4 0ZM84.7 4.1Q85.2 4 85.5 3.7Q85.8 3.4 86.3 2.4L87.5 0L86.2 0L85.2 2.2Q84.7 3.2 84.3 3.4Q84 3.7 83.4 3.7L82.3 3.7L82.3 0L81.1 0L81.1 8.7L83.5 8.7Q85 8.7 85.7 8.1Q86.5 7.4 86.5 6.2Q86.5 5.3 86 4.8Q85.6 4.3 84.7 4.1ZM82.3 7.8L82.3 4.7L83.6 4.7Q84.4 4.7 84.8 5.1Q85.2 5.4 85.2 6.2Q85.2 7 84.8 7.4Q84.4 7.8 83.5 7.8ZM89.4 8.7L94.3 8.7L94.3 7.8L92.5 7.8L92.5 1L94.3 1L94.3 0L89.4 0L89.4 1L91.3 1L91.3 7.8L89.4 7.8ZM97.7 8.7L102.8 8.7L102.8 7.8L98.8 7.8L98.8 5.4L102.4 5.4L102.4 4.4L98.8 4.4L98.8 0L97.7 0ZM105.5 8.7L110.4 8.7L110.4 7.8L108.5 7.8L108.5 1L110.4 1L110.4 0L105.5 0L105.5 1L107.3 1L107.3 7.8L105.5 7.8ZM113.5 8.7L118.7 8.7L118.7 7.8L114.7 7.8L114.7 5.4L118.5 5.4L118.5 4.4L114.7 4.4L114.7 1L118.8 1L118.8 0L113.5 0ZM122.9 1Q124.4 1 125 1.7Q125.6 2.4 125.6 4.4Q125.6 6.3 125 7Q124.4 7.8 122.9 7.8L122.4 7.8L122.4 1ZM122.9 8.7Q125 8.7 125.9 7.7Q126.8 6.6 126.8 4.4Q126.8 2.1 125.9 1.1Q125 0 122.9 0L121.2 0L121.2 8.7ZM141.6 8.7L142.7 8.7L138.1 -1.1L137 -1.1ZM152.5 8.7L153.6 8.7L154.5 1.6L155.5 6.3L156.7 6.3L157.7 1.6L158.5 8.7L159.7 8.7L158.4 0L157.3 0L156.1 5.2L154.9 0L153.8 0ZM164.1 7.7L162.9 3.2L165.3 3.2ZM163.4 8.7L164.8 8.7L167.5 0L166.3 0L165.6 2.3L162.6 2.3L161.9 0L160.7 0ZM168.8 8.7L175.5 8.7L175.5 7.8L172.7 7.8L172.7 0L171.5 0L171.5 7.8L168.8 7.8ZM182.8 0.3Q182.4 0.1 181.9 -0Q181.4 -0.2 180.9 -0.2Q179.2 -0.2 178.3 1Q177.4 2.2 177.4 4.4Q177.4 6.5 178.3 7.7Q179.2 8.9 180.9 8.9Q181.4 8.9 181.9 8.8Q182.4 8.7 182.8 8.4L182.8 7.2Q182.4 7.6 181.9 7.8Q181.4 7.9 180.9 7.9Q179.7 7.9 179.2 7.1Q178.6 6.2 178.6 4.4Q178.6 2.6 179.2 1.7Q179.7 0.8 180.9 0.8Q181.4 0.8 181.9 1Q182.4 1.2 182.8 1.5ZM185.4 8.7L186.6 8.7L186.6 5.4L189.8 5.4L189.8 8.7L191 8.7L191 0L189.8 0L189.8 4.4L186.6 4.4L186.6 0L185.4 0ZM193.7 8.7L198.9 8.7L198.9 7.8L194.9 7.8L194.9 5.4L198.8 5.4L198.8 4.4L194.9 4.4L194.9 1L199 1L199 0L193.7 0ZM203.2 1Q204.7 1 205.3 1.7Q205.8 2.4 205.8 4.4Q205.8 6.3 205.3 7Q204.7 7.8 203.2 7.8L202.6 7.8L202.6 1ZM203.2 8.7Q205.2 8.7 206.1 7.7Q207.1 6.6 207.1 4.4Q207.1 2.1 206.1 1.1Q205.2 0 203.2 0L201.4 0L201.4 8.7Z"/>
  </defs>
  <g clip-path="url(#frame)">
    <rect width="1280" height="480" fill="url(#night)"/>
    <rect width="1280" height="480" fill="url(#amber-haze)"/>
    <rect width="1280" height="480" fill="url(#cyan-haze)"/>
    <!-- Registration marks and a quiet terminal header. -->
    <path d="M16 72V28l12-12h44M1208 16h56v56M16 408v56h56M1208 464h44l12-12v-44" fill="none" stroke="#75858e" stroke-opacity=".25"/>
    <path d="M72 85h1136" stroke="#54616b" stroke-opacity=".24"/>
    <rect x="72" y="49" width="7" height="7" fill="#eab05b"/>
    <use href="#recon-label" transform="translate(95 60) scale(1 -1)" fill="#a8b0b3"/>
    <path d="M1107 44h2v18h-2zM1113 44h4v18h-4zM1121 44h1v18h-1zM1126 44h6v18h-6zM1136 44h2v18h-2zM1143 44h3v18h-3zM1150 44h1v18h-1zM1155 44h5v18h-5zM1165 44h2v18h-2zM1172 44h7v18h-7zM1183 44h1v18h-1zM1188 44h4v18h-4zM1196 44h2v18h-2z" fill="#e1ad63" opacity=".65"/>
    <rect x="28" y="20" width="1224" height="382" fill="url(#rain)"/>
    <!-- A panoramic stencil wordmark stays legible when the README shrinks. -->
    <g transform="translate(72 112) scale(1.14)" fill="url(#gold)" fill-rule="evenodd" mask="url(#stencil)">
      <use href="#letter-d"/>
      <use href="#letter-e" x="145"/>
      <use href="#letter-c" x="282"/>
      <use href="#letter-k" x="427"/>
      <use href="#letter-a" x="572"/>
      <use href="#letter-r" x="726"/>
      <use href="#letter-d" x="880"/>
    </g>
    <path d="M72 279h83m8 0h28m8 0h10" fill="none" stroke="#edb667" stroke-width="2"/>
    <path d="M236 279h962" stroke="#8d714f" stroke-opacity=".25"/>
    <!-- Three original skyline layers: distant haze, lit towers, dark roofs. -->
    <path d="M0 414V376h30v-45h38v41h31v-19h32v-51h12v-12h8v12h15v37h41v-19h23v50h29v-40h40v-31h26v-18h12v18h30v51h31v-17h23v-52h8v-33h5v-23h4v23h5v33h14v45h25v-11h18v49h21v-31h21v-45h30v-18h40v22h23v38h31v-31h23v-35h32v-30h16v21h14v44h35v50h28v-30h41v30h36v-47h26v-20h19v20h33v-25h28v-35h8v-25h4v25h8v35h32v25h37v-31h29v56h37v-15h38v57h33v-33h49v98z" fill="#364048" opacity=".38" transform="translate(0 54)"/>
    <path d="M0 414V363h40v-10h24v61h31v-69h29v-30h36v-10h20v40h24v69h32v-86h16v-14h10v-23h4v23h10v14h23v86h31v-43h27v-26h44v69h28v-86h37v-16h24v16h27v86h25v-56h29v-12h41v68h23v-82h17v-12h8v-25h4v25h8v12h23v82h27v-44h21v-13h30v57h22v-90h51v-22h8v22h19v90h25v-56h45v56h22v-77h24v-14h30v91h29v-64h26v-28h41v92h30v-100l35-25h30v125h32v-68h29v-28h39v96h31v-51h27v-25h25v76h32v-60h36v60z" fill="#101820" stroke="#70736b" stroke-opacity=".17"/>
    <g fill="url(#windows)">
      <path d="M109 348h55v66h-55zM246 335h40v79h-40zM431 336h64v78h-64zM589 343h41v71h-41zM757 338h59v76h-59zM977 331h61v83h-61zM1088 346h52v68h-52z"/>
    </g>
    <g fill="none">
      <path d="M147 318v80m5-77v76m7-77v68M154 310h15" stroke="#68c6ce" stroke-width="2" opacity=".66"/>
      <path d="M265 304v-13m-21 40h45M437 327h43M779 325h22M1001 309l30-22M991 321h43" stroke="#ddb26d" stroke-width="1.5" opacity=".6"/>
      <path d="M749 349h58m-58 6h58m-58 6h24M981 355h48m-48 7h48m-48 7h48" stroke="#8bc4c6" stroke-opacity=".25"/>
    </g>
    <path d="M0 420v-34h55v-12h26v46h64v-23h39v23h25v-50h35v-13h24v63h40v-31h26v31h46v-44h49v44h36v-24h34v24h37v-53h30v-10h20v63h52v-28h42v28h51v-38h24v-12h23v50h38v-22h67v22h37v-48h44v48h59v-25h35v25h38v-41h50v41h34v-26h47v26h44v-39h23v39h38v-17h42v17z" fill="#090e14"/>
    <!-- Bounded scan traces connect the city to one selected target. -->
    <path d="M51 341h1130" stroke="url(#scan)"/>
    <path d="M220 402h988" stroke="url(#horizon)" stroke-width="2"/>
    <g fill="none" stroke="#78d4da">
      <path d="M167 352h145l18 18h302l24-24h332" stroke-opacity=".22"/>
      <path d="M168 342v17m-8-8h16M632 362v17m-8-8h16" stroke-opacity=".6"/>
      <circle cx="168" cy="351" r="3" fill="#78d4da" stroke="none"/>
      <circle cx="632" cy="370" r="3" fill="#78d4da" stroke="none"/>
    </g>
    <g transform="translate(1061 326)" fill="none" stroke="#eeb468">
      <path d="M-48-14v-14h14M34-28h14v14M48 14v14H34M-34 28h-14V14" stroke-opacity=".6"/>
      <path d="M-7 0H7M0-7V7" stroke-width="1.5"/>
      <path d="M0-22v-10M0 22v10M-22 0h-10M22 0h10" stroke-opacity=".45"/>
      <circle r="19" stroke-opacity=".45"/>
      <path d="M-14-14a20 20 0 0 1 28 0" stroke-width="2"/>
    </g>
    <rect y="392" width="1280" height="88" fill="url(#ground)"/>
    <rect width="1280" height="480" fill="url(#terminal-lines)" opacity=".55"/>
    <use href="#monitoring-label" transform="translate(72 429) scale(1 -1)" fill="#d6dbda"/>
    <use href="#replicants-label" transform="translate(72 458) scale(1 -1)" fill="#e7ad63"/>
    <use href="#scope-label" transform="translate(989 454) scale(1 -1)" fill="#83989d"/>
    <path d="M957 444v12" stroke="#5b8990" stroke-opacity=".65"/>
  </g>
</svg>
